 <svg display="none" xmlns="http://www.w3.org/2000/svg">
 	<symbol id="html" viewBox="0 0 46 65">
 		<path d="M4.16571 59.7793L0 12.774H45.7746L41.6044 59.7719L22.8592 65L4.16571 59.7793Z" fill="#E53D20"/>
		<path d="M22.8873 61.0039L38.0343 56.7793L41.598 16.6174H22.8873V61.0039Z" fill="#F15123"/>
		<path d="M22.8873 34.0511H15.3044L14.7806 28.1476H22.8873V22.3825H22.8675H8.51785L8.65507 23.9292L10.0635 39.8159H22.8873V34.0511Z" fill="#EDEDED"/>
		<path d="M22.8873 49.0232L22.8622 49.03L16.4802 47.2962L16.072 42.6984H12.9709H10.3195L11.1224 51.7503L22.8609 55.0286L22.8873 55.0212V49.0232Z" fill="#EDEDED"/>
		<path d="M4.25882 4.1008e-05H7.17105V2.89456H9.83493V4.1008e-05H12.7473V8.76538H9.83505V5.83029H7.17118V8.76538H4.25903V4.1008e-05H4.25882Z" fill="#100F0D"/>
		<path d="M16.5769 2.90678H14.0131V4.1008e-05H22.0541V2.90678H19.4892V8.76538H16.5771V2.90678H16.5769Z" fill="#100F0D"/>
		<path d="M23.3303 4.1008e-05H26.3669L28.2348 3.0799L30.1008 4.1008e-05H33.1386V8.76538H30.2384V4.42079L28.2348 7.53739H28.1848L26.1798 4.42079V8.76538H23.3303V4.1008e-05Z" fill="#100F0D"/>
		<path d="M34.588 4.1008e-05H37.501V5.8681H41.5963V8.76538H34.588V4.1008e-05Z" fill="#100F0D"/>
		<path d="M22.8675 34.0511V39.8159H29.9239L29.2588 47.2927L22.8675 49.0282V55.0259L34.6153 51.7504L34.7014 50.7765L36.0481 35.5991L36.1879 34.0511H34.6437H22.8675Z" fill="white"/>
		<path d="M22.8675 22.3827V28.1477H36.691H36.7093L36.8243 26.8518L37.0854 23.9293L37.2224 22.3827H22.8675Z" fill="white"/>
 	</symbol>
	<symbol id="css" viewBox="0 0 46 65">
		<path d="M22.9719 65L4.18634 59.7793L0 12.7742H46.0001L41.8093 59.7722L22.9719 65Z" fill="#4353AD"/>
		<path d="M38.2216 56.7794L41.8025 16.6177H22.9999V61.0039L38.2216 56.7794Z" fill="#485FB5"/>
		<path d="M23 49.0235L22.9747 49.03L16.5613 47.2964L16.1513 42.6987H10.3704L11.1771 51.7505L22.9735 55.0288L23 55.0215V49.0235ZM8.55991 22.3827L9.08337 28.1476H23V22.3827H8.55991ZM9.59704 34.051L10.1131 39.816H23V34.051H9.59704Z" fill="#EDEDED"/>
		<path d="M27.5654 6.38962e-05H34.5403V2.53905H30.4824V3.04709H34.5403V8.88672H27.5654V6.22052H31.6236V5.71288H27.5656V6.38962e-05H27.5654ZM19.1956 6.38962e-05H26.1703V2.53905H22.1124V3.04709H26.1703V8.88672H19.1958V6.22052H23.2538V5.71288H19.1955V6.38962e-05H19.1956ZM10.8259 6.38962e-05H17.8005V2.91988H13.7427V5.84009H17.8009V8.75991H10.8259V6.38962e-05Z" fill="#100F0D"/>
		<path d="M36.3662 34.0512L37.4057 22.3829H22.9802V28.1477H31.0947L30.5708 34.0512H22.9802V39.8162H30.0715L29.4026 47.2932L22.98 49.0284V55.0261L34.7856 51.7507L34.872 50.7769L36.2257 35.5992L36.3662 34.0512Z" fill="white"/>		
	</symbol>
	<symbol id="js" viewBox="0 0 65 65">
		<path d="M0 0H65V65H0V0Z" fill="#F7DF1E"/>
		<path d="M17.0909 54.3188L22.0651 51.3084C23.0247 53.0099 23.8977 54.4495 25.9916 54.4495C27.9988 54.4495 29.2642 53.6643 29.2642 50.6104V29.8413H35.3726V50.6967C35.3726 57.0234 31.6641 59.9031 26.2535 59.9031C21.367 59.9031 18.5306 57.3723 17.0908 54.3183" fill="black"/>
		<path d="M38.6905 53.6641L43.6641 50.7844C44.9734 52.9226 46.6751 54.4932 49.6855 54.4932C52.2165 54.4932 53.8304 53.2278 53.8304 51.4825C53.8304 49.3881 52.1725 48.6463 49.38 47.425L47.8533 46.7701C43.4462 44.8943 40.5228 42.5382 40.5228 37.564C40.5228 32.9826 44.0133 29.4919 49.4675 29.4919C53.3508 29.4919 56.1432 30.8447 58.1501 34.3789L53.3941 37.433C52.3469 35.557 51.2128 34.8153 49.4676 34.8153C47.6787 34.8153 46.5441 35.9497 46.5441 37.433C46.5441 39.2656 47.6787 40.0075 50.2963 41.142L51.8233 41.7964C57.0155 44.0218 59.939 46.2904 59.939 51.3952C59.939 56.8932 55.6195 59.9035 49.8165 59.9035C44.1444 59.9035 40.4792 57.1984 38.6906 53.6641" fill="black"/>		
	</symbol>
	<symbol id="side-down" viewBox="0 0 293.649 293.649">
		<path d="M252.469,153.155c-2.52-5.141-7.745-8.399-13.47-8.399h-35.347V15c0-8.284-6.716-15-15-15h-83.656c-8.284,0-15,6.716-15,15
		v129.756H54.65c-5.725,0-10.95,3.259-13.47,8.399c-2.52,5.141-1.893,11.267,1.615,15.791L134.97,287.84
		c2.841,3.665,7.218,5.81,11.855,5.81s9.014-2.145,11.854-5.81l92.175-118.894C254.362,164.422,254.989,158.296,252.469,153.155z"/>	
	</symbol>
 </svg>