 <svg display="none" xmlns="http://www.w3.org/2000/svg">
 	<symbol id="html" viewBox="0 0 46 65"> 
 		<path d="M4.16571 59.7793L0 12.774H45.7746L41.6044 59.7719L22.8592 65L4.16571 59.7793Z" fill="#E53D20"/>
		<path d="M22.8873 61.0039L38.0343 56.7793L41.598 16.6174H22.8873V61.0039Z" fill="#F15123"/>
		<path d="M22.8873 34.0511H15.3044L14.7806 28.1476H22.8873V22.3825H22.8675H8.51785L8.65507 23.9292L10.0635 39.8159H22.8873V34.0511Z" fill="#EDEDED"/>
		<path d="M22.8873 49.0232L22.8622 49.03L16.4802 47.2962L16.072 42.6984H12.9709H10.3195L11.1224 51.7503L22.8609 55.0286L22.8873 55.0212V49.0232Z" fill="#EDEDED"/>
		<path d="M4.25882 4.1008e-05H7.17105V2.89456H9.83493V4.1008e-05H12.7473V8.76538H9.83505V5.83029H7.17118V8.76538H4.25903V4.1008e-05H4.25882Z" fill="#100F0D"/>
		<path d="M16.5769 2.90678H14.0131V4.1008e-05H22.0541V2.90678H19.4892V8.76538H16.5771V2.90678H16.5769Z" fill="#100F0D"/>
		<path d="M23.3303 4.1008e-05H26.3669L28.2348 3.0799L30.1008 4.1008e-05H33.1386V8.76538H30.2384V4.42079L28.2348 7.53739H28.1848L26.1798 4.42079V8.76538H23.3303V4.1008e-05Z" fill="#100F0D"/>
		<path d="M34.588 4.1008e-05H37.501V5.8681H41.5963V8.76538H34.588V4.1008e-05Z" fill="#100F0D"/>
		<path d="M22.8675 34.0511V39.8159H29.9239L29.2588 47.2927L22.8675 49.0282V55.0259L34.6153 51.7504L34.7014 50.7765L36.0481 35.5991L36.1879 34.0511H34.6437H22.8675Z" fill="white"/>
		<path d="M22.8675 22.3827V28.1477H36.691H36.7093L36.8243 26.8518L37.0854 23.9293L37.2224 22.3827H22.8675Z" fill="white"/>
 	</symbol>
	<symbol id="css" viewBox="0 0 46 65">
		<path d="M22.9719 65L4.18634 59.7793L0 12.7742H46.0001L41.8093 59.7722L22.9719 65Z" fill="#4353AD"/>
		<path d="M38.2216 56.7794L41.8025 16.6177H22.9999V61.0039L38.2216 56.7794Z" fill="#485FB5"/>
		<path d="M23 49.0235L22.9747 49.03L16.5613 47.2964L16.1513 42.6987H10.3704L11.1771 51.7505L22.9735 55.0288L23 55.0215V49.0235ZM8.55991 22.3827L9.08337 28.1476H23V22.3827H8.55991ZM9.59704 34.051L10.1131 39.816H23V34.051H9.59704Z" fill="#EDEDED"/>
		<path d="M27.5654 6.38962e-05H34.5403V2.53905H30.4824V3.04709H34.5403V8.88672H27.5654V6.22052H31.6236V5.71288H27.5656V6.38962e-05H27.5654ZM19.1956 6.38962e-05H26.1703V2.53905H22.1124V3.04709H26.1703V8.88672H19.1958V6.22052H23.2538V5.71288H19.1955V6.38962e-05H19.1956ZM10.8259 6.38962e-05H17.8005V2.91988H13.7427V5.84009H17.8009V8.75991H10.8259V6.38962e-05Z" fill="#100F0D"/>
		<path d="M36.3662 34.0512L37.4057 22.3829H22.9802V28.1477H31.0947L30.5708 34.0512H22.9802V39.8162H30.0715L29.4026 47.2932L22.98 49.0284V55.0261L34.7856 51.7507L34.872 50.7769L36.2257 35.5992L36.3662 34.0512Z" fill="white"/>		
	</symbol>
	<symbol id="js" viewBox="0 0 65 65">
		<path d="M0 0H65V65H0V0Z" fill="#F7DF1E"/>
		<path d="M17.0909 54.3188L22.0651 51.3084C23.0247 53.0099 23.8977 54.4495 25.9916 54.4495C27.9988 54.4495 29.2642 53.6643 29.2642 50.6104V29.8413H35.3726V50.6967C35.3726 57.0234 31.6641 59.9031 26.2535 59.9031C21.367 59.9031 18.5306 57.3723 17.0908 54.3183" fill="black"/>
		<path d="M38.6905 53.6641L43.6641 50.7844C44.9734 52.9226 46.6751 54.4932 49.6855 54.4932C52.2165 54.4932 53.8304 53.2278 53.8304 51.4825C53.8304 49.3881 52.1725 48.6463 49.38 47.425L47.8533 46.7701C43.4462 44.8943 40.5228 42.5382 40.5228 37.564C40.5228 32.9826 44.0133 29.4919 49.4675 29.4919C53.3508 29.4919 56.1432 30.8447 58.1501 34.3789L53.3941 37.433C52.3469 35.557 51.2128 34.8153 49.4676 34.8153C47.6787 34.8153 46.5441 35.9497 46.5441 37.433C46.5441 39.2656 47.6787 40.0075 50.2963 41.142L51.8233 41.7964C57.0155 44.0218 59.939 46.2904 59.939 51.3952C59.939 56.8932 55.6195 59.9035 49.8165 59.9035C44.1444 59.9035 40.4792 57.1984 38.6906 53.6641" fill="black"/>		
	</symbol>
	<symbol id="side-down" viewBox="0 0 293.649 293.649">
		<path d="M252.469,153.155c-2.52-5.141-7.745-8.399-13.47-8.399h-35.347V15c0-8.284-6.716-15-15-15h-83.656c-8.284,0-15,6.716-15,15
		v129.756H54.65c-5.725,0-10.95,3.259-13.47,8.399c-2.52,5.141-1.893,11.267,1.615,15.791L134.97,287.84
		c2.841,3.665,7.218,5.81,11.855,5.81s9.014-2.145,11.854-5.81l92.175-118.894C254.362,164.422,254.989,158.296,252.469,153.155z"/>	
	</symbol>
	<symbol id="sass" viewBox="0 0 512 512">
		<path d="M422.009,281.793c-16.096,0.071-30.035,3.952-41.675,9.701c-4.24-8.553-8.624-16.025-9.343-21.629     c-0.86-6.54-1.796-10.419-0.789-18.179c1.007-7.762,5.532-18.756,5.461-19.545c-0.071-0.79-1.006-4.743-10.275-4.815     c-9.269-0.071-17.244,1.796-18.179,4.239c-0.936,2.443-2.73,7.977-3.808,13.725c-1.653,8.407-18.54,38.443-28.097,54.107     c-3.161-6.106-5.819-11.497-6.395-15.808c-0.862-6.54-1.796-10.419-0.79-18.179c1.006-7.762,5.532-18.756,5.46-19.545     c-0.072-0.79-1.006-4.743-10.274-4.815c-9.27-0.071-17.244,1.796-18.18,4.24c-0.934,2.442-1.94,8.191-3.808,13.726     c-1.867,5.53-24.359,55.541-30.251,68.548c-3.019,6.609-5.604,11.927-7.473,15.521c-0.286,0.574-0.502,0.934-0.646,1.222     c0.215-0.359,0.36-0.72,0.36-0.574c-1.581,3.088-2.516,4.813-2.516,4.813v0.071c-1.222,2.299-2.587,4.382-3.233,4.382     c-0.432,0-1.365-6.034,0.216-14.298c3.376-17.389,11.352-44.404,11.28-45.34c-0.072-0.503,1.508-5.173-5.246-7.689     c-6.538-2.371-8.91,1.582-9.484,1.582s-1.006,1.438-1.006,1.438s7.258-30.467-13.94-30.467     c-13.221,0-31.615,14.516-40.668,27.665c-5.677,3.09-17.965,9.772-30.898,16.885c-4.958,2.731-10.06,5.532-14.874,8.192     c-0.359-0.361-0.647-0.72-1.006-1.079c-25.724-27.447-73.22-46.848-71.207-83.711c0.718-13.437,5.389-48.716,91.327-91.542     c70.418-35.065,126.751-25.436,136.453-4.024c13.938,30.539-30.109,87.376-103.256,95.566     c-27.88,3.09-42.537-7.688-46.202-11.711c-3.809-4.239-4.384-4.456-5.821-3.665c-2.372,1.293-0.862,5.03,0,7.257     c2.156,5.676,11.137,15.736,26.443,20.766c13.435,4.383,46.13,6.827,85.649-8.479c44.406-17.102,78.969-64.742,68.837-104.62     C303.809,85.2,236.625,71.906,173.034,94.468c-37.867,13.437-78.824,34.563-108.285,62.082     c-34.993,32.767-40.597,61.292-38.299,73.221c8.192,42.321,66.537,69.914,89.89,90.32c-1.15,0.647-2.228,1.222-3.233,1.797     c-11.712,5.819-56.19,29.1-67.328,53.677c-12.573,27.879,2.083,47.853,11.712,50.585c30.035,8.334,60.789-6.683,77.316-31.33     c16.525-24.645,14.514-56.836,6.898-71.495c-0.073-0.215-0.216-0.357-0.287-0.575c3.017-1.795,6.106-3.592,9.197-5.388     c5.963-3.521,11.784-6.756,16.885-9.556c-2.875,7.761-4.958,17.098-6.036,30.609c-1.293,15.807,5.246,36.286,13.725,44.334     c3.735,3.521,8.262,3.594,11.065,3.594c9.916,0,14.37-8.193,19.328-17.965c6.108-11.93,11.497-25.798,11.497-25.798     s-6.754,37.511,11.712,37.511c6.754,0,13.51-8.695,16.526-13.15v0.071c0,0,0.145-0.286,0.504-0.86     c0.718-1.079,1.077-1.726,1.077-1.726v-0.217c2.73-4.67,8.695-15.377,17.675-33.052c11.642-22.851,22.778-51.378,22.778-51.378     s1.006,6.972,4.457,18.54c2.011,6.826,6.25,14.299,9.627,21.557c-2.729,3.736-4.383,5.892-4.383,5.892s0,0.071,0.07,0.143     c-2.155,2.876-4.597,5.966-7.112,8.984c-9.198,10.921-20.12,23.425-21.556,27.017c-1.726,4.24-1.294,7.399,2.012,9.844     c2.442,1.869,6.754,2.155,11.28,1.797c8.264-0.577,14.084-2.587,16.886-3.883c4.454-1.578,9.629-4.095,14.515-7.615     c8.982-6.609,14.444-16.094,13.939-28.597c-0.287-6.898-2.516-13.797-5.246-20.262c0.791-1.151,1.654-2.374,2.444-3.593     c14.229-20.769,25.222-43.544,25.222-43.544s1.006,6.968,4.454,18.537c1.725,5.821,5.102,12.216,8.191,18.466     c-13.365,10.851-21.627,23.427-24.502,31.688c-5.318,15.306-1.15,22.202,6.682,23.786c3.521,0.718,8.551-0.936,12.288-2.517     c4.67-1.581,10.275-4.096,15.52-7.976c8.982-6.609,17.677-15.88,17.103-28.454c-0.217-5.677-1.797-11.353-3.881-16.814     c11.28-4.741,25.941-7.33,44.622-5.173c40.023,4.67,47.854,29.675,46.345,40.093c-1.507,10.492-9.914,16.241-12.717,17.965     c-2.804,1.725-3.665,2.372-3.448,3.665c0.358,1.868,1.651,1.797,4.022,1.364c3.307-0.574,20.982-8.479,21.771-27.808     C487.108,308.45,463.613,281.578,422.009,281.793L422.009,281.793z M113.538,385.766c-13.22,14.443-31.759,19.904-39.734,15.305     c-8.551-4.956-5.174-26.226,11.137-41.604c9.916-9.34,22.706-17.962,31.185-23.279c1.94-1.149,4.743-2.874,8.192-4.958     c0.575-0.357,0.862-0.502,0.862-0.502c0.646-0.433,1.365-0.791,2.084-1.223C133.226,351.349,127.478,370.605,113.538,385.766     L113.538,385.766z M210.111,320.091c-4.599,11.28-14.3,40.023-20.19,38.514c-5.03-1.294-8.121-23.209-1.006-44.764     c3.592-10.851,11.208-23.784,15.736-28.813c7.256-8.121,15.232-10.708,17.101-7.474     C224.266,281.793,212.984,313.05,210.111,320.091L210.111,320.091z M289.868,358.176c-1.939,1.005-3.736,1.651-4.598,1.148     c-0.646-0.359,0.791-1.725,0.791-1.725s9.986-10.706,13.939-15.594c2.299-2.873,4.957-6.251,7.832-9.986     c0,0.357,0.07,0.719,0.07,1.148C307.833,346.031,295.474,354.727,289.868,358.176z M351.377,344.163     c-1.437-1.006-1.223-4.383,3.592-14.875c1.869-4.096,6.181-10.993,13.652-17.604c0.863,2.73,1.365,5.316,1.365,7.759     C369.913,335.611,358.346,341.647,351.377,344.163L351.377,344.163z"/>
	</symbol>
	<symbol id="less" viewBox="0 0 512 512">
		<g><polyline fill="#1E416F" points="-1.016,512 510.984,512 510.984,0 -1.016,0 -1.016,512  "/><polyline fill="#010101" opacity="0.102" points="411.984,240 109.984,240 110.984,302 263.984,512 510.984,512 510.984,353    411.984,240  "/><path d="M137.519,311.898c-10.036,0-17.336-1.757-21.898-5.272c-4.562-3.513-6.843-9.775-6.843-18.786v-15.825   c0-8.084-3.193-12.125-9.581-12.125v-12.318c6.388,0,9.581-4.319,9.581-12.96v-15.12c0-9.31,2.256-15.854,6.768-19.63   c4.512-3.78,11.837-5.669,21.974-5.669v12.319c-7.299,0-10.949,3.956-10.949,11.869v14.543c0,10.919-3.649,17.813-10.949,20.68   v0.255c7.3,2.738,10.949,9.504,10.949,20.295v13.537c0,4.32,0.856,7.381,2.567,9.186c1.71,1.803,4.505,2.703,8.382,2.703V311.898" fill="#FFFFFF"/><path d="M170.367,266.199c0,2.864,0.713,5.038,2.139,6.521c1.425,1.483,3.336,2.226,5.73,2.226   c1.199,0,2.396-0.11,3.593-0.332c1.198-0.222,2.395-0.445,3.592-0.673v15.118c-2.538,0.671-5.224,1.223-8.061,1.657   c-2.837,0.436-5.789,0.652-8.854,0.652c-2.81,0-5.364-0.467-7.667-1.4c-2.303-0.933-4.267-2.277-5.893-4.03   c-1.625-1.755-2.883-3.872-3.774-6.352c-0.891-2.481-1.336-5.274-1.336-8.383v-82.484h20.53V266.199" fill="#FFFFFF"/><path d="M236.063,248.94c0-9.124-3.9-13.686-11.697-13.686c-3.323,0-6.199,1.307-8.629,3.923   c-2.43,2.616-3.911,5.871-4.438,9.763H236.063 M255.224,261.259h-43.797c0.713,10.035,6.921,15.055,18.626,15.055   c7.472,0,14.037-1.938,19.697-5.817v15.655c-6.259,3.478-14.385,5.217-24.38,5.217c-10.92,0-19.396-3.036-25.427-9.109   c-6.03-6.074-9.046-14.543-9.046-25.406c0-11.277,3.238-20.206,9.709-26.785c6.474-6.58,14.428-9.869,23.867-9.869   c9.794,0,17.368,2.904,22.721,8.713c5.353,5.81,8.031,13.69,8.031,23.642V261.259z" fill="#FFFFFF"/><path d="M263.436,287.605v-18.478c3.492,2.424,6.976,4.227,10.447,5.411c3.471,1.183,6.754,1.774,9.849,1.774   c3.763,0,6.731-0.441,8.906-1.325s3.261-2.224,3.261-4.022c0-1.324-0.492-2.43-1.476-3.313c-0.984-0.884-2.249-1.657-3.796-2.32   s-3.24-1.259-5.079-1.785c-1.839-0.528-3.606-1.126-5.304-1.798c-2.736-1.012-5.146-2.104-7.229-3.283   c-2.081-1.176-3.828-2.536-5.238-4.083c-1.412-1.547-2.488-3.336-3.229-5.369c-0.741-2.03-1.112-4.438-1.112-7.217   c0-3.792,0.854-7.06,2.555-9.805c1.705-2.745,3.971-4.987,6.801-6.725c2.831-1.741,6.074-3.02,9.729-3.839   c3.659-0.82,7.461-1.229,11.41-1.229c3.079,0,6.21,0.238,9.388,0.715c3.18,0.478,6.309,1.173,9.389,2.086v16.702   c-2.766-1.483-5.73-2.595-8.896-3.336c-3.164-0.742-6.271-1.112-9.324-1.112c-1.424,0-2.771,0.103-4.041,0.31   c-1.269,0.207-2.389,0.509-3.357,0.907c-0.969,0.401-1.731,0.914-2.287,1.541c-0.557,0.629-0.835,1.34-0.835,2.139   c0,1.24,0.41,2.302,1.229,3.187c0.82,0.884,1.887,1.647,3.197,2.288c1.312,0.642,2.772,1.216,4.383,1.721   c1.611,0.507,3.209,1.023,4.792,1.551c2.864,0.97,5.457,2.029,7.773,3.176c2.316,1.148,4.302,2.495,5.956,4.042   c1.653,1.546,2.922,3.362,3.806,5.443c0.884,2.08,1.325,4.555,1.325,7.422c0,4.02-0.887,7.451-2.662,10.295   c-1.775,2.846-4.133,5.162-7.078,6.951s-6.336,3.094-10.18,3.912c-3.843,0.82-7.831,1.23-11.965,1.23   C276.943,291.368,269.908,290.114,263.436,287.605" fill="#FFFFFF"/><path d="M323.656,287.605v-18.478c3.493,2.424,6.977,4.227,10.446,5.411c3.473,1.183,6.755,1.774,9.849,1.774   c3.763,0,6.734-0.441,8.908-1.325c2.172-0.884,3.261-2.224,3.261-4.022c0-1.324-0.492-2.43-1.477-3.313s-2.247-1.657-3.794-2.32   s-3.242-1.259-5.081-1.785c-1.839-0.528-3.606-1.126-5.303-1.798c-2.737-1.012-5.147-2.104-7.229-3.283   c-2.08-1.176-3.828-2.536-5.239-4.083c-1.41-1.547-2.487-3.336-3.228-5.369c-0.742-2.03-1.113-4.438-1.113-7.217   c0-3.792,0.852-7.06,2.556-9.805s3.97-4.987,6.801-6.725c2.831-1.741,6.074-3.02,9.729-3.839c3.659-0.82,7.461-1.229,11.409-1.229   c3.081,0,6.211,0.238,9.388,0.715c3.18,0.478,6.311,1.173,9.389,2.086v16.702c-2.766-1.483-5.729-2.595-8.896-3.336   c-3.164-0.742-6.273-1.112-9.322-1.112c-1.425,0-2.773,0.103-4.042,0.31s-2.388,0.509-3.356,0.907   c-0.972,0.401-1.734,0.914-2.289,1.541c-0.558,0.629-0.834,1.34-0.834,2.139c0,1.24,0.409,2.302,1.229,3.187   c0.82,0.884,1.886,1.647,3.198,2.288c1.31,0.642,2.771,1.216,4.383,1.721c1.609,0.507,3.208,1.023,4.791,1.551   c2.865,0.97,5.456,2.029,7.773,3.176c2.315,1.148,4.3,2.495,5.956,4.042c1.653,1.546,2.922,3.362,3.805,5.443   c0.886,2.08,1.325,4.555,1.325,7.422c0,4.02-0.888,7.451-2.661,10.295c-1.776,2.846-4.136,5.162-7.078,6.951   c-2.945,1.789-6.339,3.094-10.18,3.912c-3.844,0.82-7.831,1.23-11.966,1.23C337.165,291.368,330.13,290.114,323.656,287.605" fill="#FFFFFF"/><path d="M422.201,259.89c-6.389,0-9.581,4.106-9.581,12.318v15.226c0,9.281-2.148,15.68-6.448,19.192   c-4.299,3.516-11.273,5.272-20.924,5.272v-12.319c3.833,0,6.617-0.891,8.349-2.672c1.731-1.782,2.599-4.811,2.599-9.088v-14.073   c0-10.521,3.193-17.1,9.581-19.738v-0.277c-6.388-2.865-9.581-9.987-9.581-21.363V218.38c0-7.913-3.65-11.869-10.947-11.869   v-12.319c9.609,0,16.572,1.889,20.893,5.669c4.32,3.776,6.479,10.229,6.479,19.353v15.547c0,8.539,3.192,12.81,9.581,12.81V259.89" fill="#FFFFFF"/></g>	
	</symbol>
	<symbol id="github" viewBox="0 0 512 512">
		<g><path clip-rule="evenodd" d="M296.133,354.174c49.885-5.891,102.942-24.029,102.942-110.192   c0-24.49-8.624-44.448-22.67-59.869c2.266-5.89,9.515-28.114-2.734-58.947c0,0-18.139-5.898-60.759,22.669   c-18.139-4.983-38.09-8.163-56.682-8.163c-19.053,0-39.011,3.18-56.697,8.163c-43.082-28.567-61.22-22.669-61.22-22.669   c-12.241,30.833-4.983,53.057-2.718,58.947c-14.061,15.42-22.677,35.379-22.677,59.869c0,86.163,53.057,104.301,102.942,110.192   c-6.344,5.452-12.241,15.873-14.507,30.387c-12.702,5.438-45.808,15.873-65.758-18.592c0,0-11.795-21.31-34.012-22.669   c0,0-22.224-0.453-1.813,13.592c0,0,14.96,6.812,24.943,32.653c0,0,13.6,43.089,76.179,29.48v38.543   c0,5.906-4.53,12.702-15.865,10.89C96.139,438.977,32.2,354.626,32.2,255.77c0-123.807,100.216-224.022,224.03-224.022   c123.347,0,224.023,100.216,223.57,224.022c0,98.856-63.946,182.754-152.828,212.688c-11.342,2.266-15.873-4.53-15.873-10.89   V395.45C311.1,374.577,304.288,360.985,296.133,354.174L296.133,354.174z M512,256.23C512,114.73,397.263,0,256.23,0   C114.73,0,0,114.73,0,256.23C0,397.263,114.73,512,256.23,512C397.263,512,512,397.263,512,256.23L512,256.23z" fill="#0D2636" fill-rule="evenodd"/></g>
	</symbol>
	<symbol id="gulp" viewBox="0 0 256 566">
		<path d="M197.28 548.749l5.427-90.43 14.985-25.58s-34.106 13.952-91.205 13.952c-57.1 0-90.689-13.694-90.689-13.694l16.794 27.904 5.941 87.848c0 9.418 31.059 17.052 69.374 17.052 38.313 0 69.373-7.634 69.373-17.052M180.161 126.454l11.391-45.025 63.081-66.376L238.007.892l-66.784 70.707-13.226 53.793a886.14 886.14 0 0 0-29.873-.497c-70.336 0-127.355 8.016-127.355 17.902 0 9.887 57.019 17.902 127.355 17.902 70.335 0 127.353-8.015 127.353-17.902 0-7.28-30.924-13.546-75.316-16.343" fill="#D34A47"/><path d="M173.535 151.669s-2.467.553-9.724.584c-7.259.03-12.413-.047-14.466-1.917-.552-.502-.854-1.499-.851-2.174.006-1.285.918-2.042 2.08-2.516l1.099 1.724c-.478.165-.751.36-.752.568-.004.976 7.422 1.644 13.102 1.572 5.681-.07 12.545-.538 12.551-1.5 0-.291-.519-.565-1.422-.781l1.094-1.712c1.472.457 2.757 1.34 2.754 2.868-.014 2.598-3.32 2.993-5.465 3.284" fill="#FFF"/><path d="M254.509 15.184c1.586-1.832-.821-6.518-5.376-10.465C244.576.774 239.596-.94 238.007.892c-1.587 1.832.821 6.518 5.378 10.463 4.555 3.946 9.537 5.662 11.124 3.829M194.246 327.865c-1.495-14.384 31.462-35.216 23.004-35.883-18.208 1.041-27.27 21.338-36.431 42.596-3.357 7.791-14.844 41.013-22.378 36.923-7.532-4.088 9.765-31.407 14.613-47.631-5.594 4.102-26.109 20.041-31.396 5.114-8.5 7.219-26.663 11.13-24.614-7.833-4.522 8.01-14.671 19.193-26.853 14.546-15.998-6.101 9.27-57.062 15.553-54.491 6.284 2.57-1.268 14.179-3.246 18.687-4.35 9.921-9.375 22.393-6.018 24.946 5.751 4.374 21.401-16.547 21.749-17.007 2.927-3.867 11.266-29.166 17.987-26.261 6.721 2.905-16.764 36.308-7.983 42.937 1.771 1.338 9.017-.825 13.425-5.594 2.852-3.085 1.871-9.918 11.378-32.59 9.507-22.671 17.98-50.905 24.5-48.754 6.52 2.15 1.146 16.641-1.193 22.043-10.976 25.354-29.956 67.241-21.005 64.07 8.951-3.17 13.612-3.356 22.377-13.613 8.765-10.257 8.361-27.152 14.203-26.793 5.844.36 4.863 5.777 3.446 9.902 5.75-6.58 27.256-20.438 32.448-6.713 6.15 16.249-30.769 39.72-21.564 38.523 8.975-1.167 23.515-10.376 29.723-18.749l17.088-153.626s-17.195 14.23-126.589 14.23c-109.395 0-124.811-13.934-124.811-13.934l14.548 140.224c7.722-21.947 26.059-66.339 54.963-64.849 13.148.678 30.7 25.995 15.665 26.853-6.364.362-7.01-12.637-14.546-14.546-5.438-1.378-13.009 3.043-17.902 7.833-9.758 9.55-30.745 47.229-27.972 66.014 3.533 23.949 33.048-8.322 38.042-17.903 3.517-6.749 5.893-26.745 13.585-24.647 7.693 2.098-.671 22.734-6.247 40.979-6.264 20.487-9.557 42.098-17.408 39.612-7.852-2.484 4.938-28.932 4.475-33.566-7.38 6.809-20.976 24.047-38.37 15.515l9.035 87.078s24.013 18.973 96.35 18.973c72.337 0 97.239-18.677 97.239-18.677l11.219-100.857c-9.179 8.938-38.229 24.81-40.089 6.919" fill="#D34A47"/>		
	</symbol>
	<symbol id="phone" viewBox="0 0 481.168 481.168">
		<g>
			<path d="M410.639,70.5c-94-94-246.3-94-340.2,0c-90.4,90.4-93.8,235-10.1,329.5l2.5,2c-9.1,19.6-24.7,43.8-49.5,56
				c-8.2,4-6.3,16.2,2.7,17.6c27.1,4.2,66-0.5,102.3-27.9l0.5,0.4c92.2,54.2,212.8,41.8,292-37.4
				C504.639,316.8,504.639,164.4,410.639,70.5z M319.839,343.5c-5.3,5.4-10.9,10.4-15.9,16c-7.3,8.2-16.5,10.8-26.9,10.2
				c-15.2-0.8-29.3-5.9-42.8-12.5c-30.1-14.6-55.8-34.9-77.3-60.5c-15.9-18.9-29-39.5-37.7-62.8c-4.2-11.3-7.2-22.8-6.3-35
				c0.6-7.5,3.4-13.9,8.9-19.2c6-5.7,11.6-11.6,17.5-17.4c7.7-7.6,17.3-7.5,25,0c4.8,4.7,9.4,9.4,14.1,14.1c4.6,4.6,9.2,9.1,13.7,13.7
				c8,8.1,8,17.5,0,25.6c-5.7,5.8-11.4,11.6-17.3,17.2c-1.5,1.5-1.7,2.7-0.9,4.6c3.8,9.2,9.4,17.4,15.6,25
				c12.5,15.4,26.7,29.1,43.7,39.7c3.6,2.3,7.6,3.9,11.4,6c1.9,1.1,3.3,0.7,4.8-0.9c5.7-5.9,11.6-11.7,17.4-17.5
				c7.7-7.6,17.3-7.6,24.9,0c9.4,9.3,18.7,18.6,28,28C327.739,326,327.739,335.6,319.839,343.5z M231.139,188.1l3-21.4
				c20.7,2.9,39.5,12.3,54.3,27.1c14.1,14.1,23.3,31.8,26.6,51.3l-21.3,3.7c-2.6-15.1-9.7-28.8-20.6-39.7
				C261.639,197.6,247.139,190.3,231.139,188.1z M349.839,245.1c-4.8-28-18-53.4-38.1-73.6c-21.2-21.2-48.1-34.6-77.8-38.8l3-21.4
				c34.3,4.8,65.5,20.3,90,44.9c23.3,23.3,38.6,52.8,44.2,85.2L349.839,245.1z"/>
		</g>
	</symbol>
	<symbol id="mail" viewBox="0 0 230.358 230.358">
		<path d="M222.858,29.61H7.5c-4.143,0-7.5,3.357-7.5,7.5v156.139c0,4.143,3.357,7.5,7.5,7.5h215.358c4.143,0,7.5-3.357,7.5-7.5V37.11
		C230.358,32.967,227.001,29.61,222.858,29.61z M15,56.286l49.309,55.69L15,172.241V56.286z M115.181,146.805L24.696,44.61h180.966
		L115.181,146.805z M74.382,123.353l35.184,39.737c1.424,1.607,3.468,2.528,5.615,2.528c2.147,0,4.191-0.921,5.615-2.528
		l35.183-39.737l51.053,62.396H23.328L74.382,123.353z M166.051,111.977l49.308-55.69v115.952L166.051,111.977z"/>
	</symbol>
	<symbol id="insta" viewBox="0 0 455.73 455.73">
		<path d="M227.86,182.55c-24.98,0-45.32,20.33-45.32,45.31c0,24.99,20.34,45.33,45.32,45.33c24.99,0,45.32-20.34,45.32-45.33
			C273.18,202.88,252.85,182.55,227.86,182.55z M227.86,182.55c-24.98,0-45.32,20.33-45.32,45.31c0,24.99,20.34,45.33,45.32,45.33
			c24.99,0,45.32-20.34,45.32-45.33C273.18,202.88,252.85,182.55,227.86,182.55z M303.36,108.66H152.37
			c-24.1,0-43.71,19.61-43.71,43.71v150.99c0,24.1,19.61,43.71,43.71,43.71h150.99c24.1,0,43.71-19.61,43.71-43.71V152.37
			C347.07,128.27,327.46,108.66,303.36,108.66z M227.86,306.35c-43.27,0-78.48-35.21-78.48-78.49c0-43.27,35.21-78.48,78.48-78.48
			c43.28,0,78.49,35.21,78.49,78.48C306.35,271.14,271.14,306.35,227.86,306.35z M308.87,165.61c-10.24,0-18.57-8.33-18.57-18.57
			s8.33-18.57,18.57-18.57s18.57,8.33,18.57,18.57S319.11,165.61,308.87,165.61z M227.86,182.55c-24.98,0-45.32,20.33-45.32,45.31
			c0,24.99,20.34,45.33,45.32,45.33c24.99,0,45.32-20.34,45.32-45.33C273.18,202.88,252.85,182.55,227.86,182.55z M303.36,108.66
			H152.37c-24.1,0-43.71,19.61-43.71,43.71v150.99c0,24.1,19.61,43.71,43.71,43.71h150.99c24.1,0,43.71-19.61,43.71-43.71V152.37
			C347.07,128.27,327.46,108.66,303.36,108.66z M227.86,306.35c-43.27,0-78.48-35.21-78.48-78.49c0-43.27,35.21-78.48,78.48-78.48
			c43.28,0,78.49,35.21,78.49,78.48C306.35,271.14,271.14,306.35,227.86,306.35z M308.87,165.61c-10.24,0-18.57-8.33-18.57-18.57
			s8.33-18.57,18.57-18.57s18.57,8.33,18.57,18.57S319.11,165.61,308.87,165.61z M227.86,182.55c-24.98,0-45.32,20.33-45.32,45.31
			c0,24.99,20.34,45.33,45.32,45.33c24.99,0,45.32-20.34,45.32-45.33C273.18,202.88,252.85,182.55,227.86,182.55z M0,0v455.73h455.73
			V0H0z M380.23,303.36c0,42.39-34.48,76.87-76.87,76.87H152.37c-42.39,0-76.87-34.48-76.87-76.87V152.37
			c0-42.39,34.48-76.87,76.87-76.87h150.99c42.39,0,76.87,34.48,76.87,76.87V303.36z M303.36,108.66H152.37
			c-24.1,0-43.71,19.61-43.71,43.71v150.99c0,24.1,19.61,43.71,43.71,43.71h150.99c24.1,0,43.71-19.61,43.71-43.71V152.37
			C347.07,128.27,327.46,108.66,303.36,108.66z M227.86,306.35c-43.27,0-78.48-35.21-78.48-78.49c0-43.27,35.21-78.48,78.48-78.48
			c43.28,0,78.49,35.21,78.49,78.48C306.35,271.14,271.14,306.35,227.86,306.35z M308.87,165.61c-10.24,0-18.57-8.33-18.57-18.57
			s8.33-18.57,18.57-18.57s18.57,8.33,18.57,18.57S319.11,165.61,308.87,165.61z M227.86,182.55c-24.98,0-45.32,20.33-45.32,45.31
			c0,24.99,20.34,45.33,45.32,45.33c24.99,0,45.32-20.34,45.32-45.33C273.18,202.88,252.85,182.55,227.86,182.55z M227.86,182.55
			c-24.98,0-45.32,20.33-45.32,45.31c0,24.99,20.34,45.33,45.32,45.33c24.99,0,45.32-20.34,45.32-45.33
			C273.18,202.88,252.85,182.55,227.86,182.55z M227.86,182.55c-24.98,0-45.32,20.33-45.32,45.31c0,24.99,20.34,45.33,45.32,45.33
			c24.99,0,45.32-20.34,45.32-45.33C273.18,202.88,252.85,182.55,227.86,182.55z M303.36,108.66H152.37
			c-24.1,0-43.71,19.61-43.71,43.71v150.99c0,24.1,19.61,43.71,43.71,43.71h150.99c24.1,0,43.71-19.61,43.71-43.71V152.37
			C347.07,128.27,327.46,108.66,303.36,108.66z M227.86,306.35c-43.27,0-78.48-35.21-78.48-78.49c0-43.27,35.21-78.48,78.48-78.48
			c43.28,0,78.49,35.21,78.49,78.48C306.35,271.14,271.14,306.35,227.86,306.35z M308.87,165.61c-10.24,0-18.57-8.33-18.57-18.57
			s8.33-18.57,18.57-18.57s18.57,8.33,18.57,18.57S319.11,165.61,308.87,165.61z M227.86,182.55c-24.98,0-45.32,20.33-45.32,45.31
			c0,24.99,20.34,45.33,45.32,45.33c24.99,0,45.32-20.34,45.32-45.33C273.18,202.88,252.85,182.55,227.86,182.55z M227.86,182.55
			c-24.98,0-45.32,20.33-45.32,45.31c0,24.99,20.34,45.33,45.32,45.33c24.99,0,45.32-20.34,45.32-45.33
			C273.18,202.88,252.85,182.55,227.86,182.55z M227.86,182.55c-24.98,0-45.32,20.33-45.32,45.31c0,24.99,20.34,45.33,45.32,45.33
			c24.99,0,45.32-20.34,45.32-45.33C273.18,202.88,252.85,182.55,227.86,182.55z M303.36,108.66H152.37
			c-24.1,0-43.71,19.61-43.71,43.71v150.99c0,24.1,19.61,43.71,43.71,43.71h150.99c24.1,0,43.71-19.61,43.71-43.71V152.37
			C347.07,128.27,327.46,108.66,303.36,108.66z M227.86,306.35c-43.27,0-78.48-35.21-78.48-78.49c0-43.27,35.21-78.48,78.48-78.48
			c43.28,0,78.49,35.21,78.49,78.48C306.35,271.14,271.14,306.35,227.86,306.35z M308.87,165.61c-10.24,0-18.57-8.33-18.57-18.57
			s8.33-18.57,18.57-18.57s18.57,8.33,18.57,18.57S319.11,165.61,308.87,165.61z M227.86,182.55c-24.98,0-45.32,20.33-45.32,45.31
			c0,24.99,20.34,45.33,45.32,45.33c24.99,0,45.32-20.34,45.32-45.33C273.18,202.88,252.85,182.55,227.86,182.55z"/>		
	</symbol>
 </svg>