<svg style="display: none;" xmlns="http://www.w3.org/2000/svg">
  <symbol id="instagram" viewBox="0 0 169.063 169.063">
    <g>
      <path d="M122.406,0H46.654C20.929,0,0,20.93,0,46.655v75.752c0,25.726,20.929,46.655,46.654,46.655h75.752
        c25.727,0,46.656-20.93,46.656-46.655V46.655C169.063,20.93,148.133,0,122.406,0z M154.063,122.407
        c0,17.455-14.201,31.655-31.656,31.655H46.654C29.2,154.063,15,139.862,15,122.407V46.655C15,29.201,29.2,15,46.654,15h75.752
        c17.455,0,31.656,14.201,31.656,31.655V122.407z"/>
      <path d="M84.531,40.97c-24.021,0-43.563,19.542-43.563,43.563c0,24.02,19.542,43.561,43.563,43.561s43.563-19.541,43.563-43.561
        C128.094,60.512,108.552,40.97,84.531,40.97z M84.531,113.093c-15.749,0-28.563-12.812-28.563-28.561
        c0-15.75,12.813-28.563,28.563-28.563s28.563,12.813,28.563,28.563C113.094,100.281,100.28,113.093,84.531,113.093z"/>
      <path d="M129.921,28.251c-2.89,0-5.729,1.17-7.77,3.22c-2.051,2.04-3.23,4.88-3.23,7.78c0,2.891,1.18,5.73,3.23,7.78
        c2.04,2.04,4.88,3.22,7.77,3.22c2.9,0,5.73-1.18,7.78-3.22c2.05-2.05,3.22-4.89,3.22-7.78c0-2.9-1.17-5.74-3.22-7.78
        C135.661,29.421,132.821,28.251,129.921,28.251z"/>
    </g>
  </symbol>
  <symbol id="google" viewBox="0 0 96.828 96.827">
    <g>
      <g>
      <path d="M62.617,0H39.525c-10.29,0-17.413,2.256-23.824,7.552c-5.042,4.35-8.051,10.672-8.051,16.912
        c0,9.614,7.33,19.831,20.913,19.831c1.306,0,2.752-0.134,4.028-0.253l-0.188,0.457c-0.546,1.308-1.063,2.542-1.063,4.468
        c0,3.75,1.809,6.063,3.558,8.298l0.22,0.283l-0.391,0.027c-5.609,0.384-16.049,1.1-23.675,5.787
        c-9.007,5.355-9.707,13.145-9.707,15.404c0,8.988,8.376,18.06,27.09,18.06c21.76,0,33.146-12.005,33.146-23.863
        c0.002-8.771-5.141-13.101-10.6-17.698l-4.605-3.582c-1.423-1.179-3.195-2.646-3.195-5.364c0-2.672,1.772-4.436,3.336-5.992
        l0.163-0.165c4.973-3.917,10.609-8.358,10.609-17.964c0-9.658-6.035-14.649-8.937-17.048h7.663c0.094,0,0.188-0.026,0.266-0.077
        l6.601-4.15c0.188-0.119,0.276-0.348,0.214-0.562C63.037,0.147,62.839,0,62.617,0z M34.614,91.535
        c-13.264,0-22.176-6.195-22.176-15.416c0-6.021,3.645-10.396,10.824-12.997c5.749-1.935,13.17-2.031,13.244-2.031
        c1.257,0,1.889,0,2.893,0.126c9.281,6.605,13.743,10.073,13.743,16.678C53.141,86.309,46.041,91.535,34.614,91.535z
         M34.489,40.756c-11.132,0-15.752-14.633-15.752-22.468c0-3.984,0.906-7.042,2.77-9.351c2.023-2.531,5.487-4.166,8.825-4.166
        c10.221,0,15.873,13.738,15.873,23.233c0,1.498,0,6.055-3.148,9.22C40.94,39.337,37.497,40.756,34.489,40.756z"/>
      <path d="M94.982,45.223H82.814V33.098c0-0.276-0.225-0.5-0.5-0.5H77.08c-0.276,0-0.5,0.224-0.5,0.5v12.125H64.473
        c-0.276,0-0.5,0.224-0.5,0.5v5.304c0,0.275,0.224,0.5,0.5,0.5H76.58V63.73c0,0.275,0.224,0.5,0.5,0.5h5.234
        c0.275,0,0.5-0.225,0.5-0.5V51.525h12.168c0.276,0,0.5-0.223,0.5-0.5v-5.302C95.482,45.446,95.259,45.223,94.982,45.223z"/>
      </g>
    </g>
  </symbol>
  <symbol id="facebook" viewBox="0 0 96.124 96.123">
    <g>
      <path d="M72.089,0.02L59.624,0C45.62,0,36.57,9.285,36.57,23.656v10.907H24.037c-1.083,0-1.96,0.878-1.96,1.961v15.803
        c0,1.083,0.878,1.96,1.96,1.96h12.533v39.876c0,1.083,0.877,1.96,1.96,1.96h16.352c1.083,0,1.96-0.878,1.96-1.96V54.287h14.654
        c1.083,0,1.96-0.877,1.96-1.96l0.006-15.803c0-0.52-0.207-1.018-0.574-1.386c-0.367-0.368-0.867-0.575-1.387-0.575H56.842v-9.246
        c0-4.444,1.059-6.7,6.848-6.7l8.397-0.003c1.082,0,1.959-0.878,1.959-1.96V1.98C74.046,0.899,73.17,0.022,72.089,0.02z"/>
    </g>
  </symbol>
  <symbol id="twitter" viewBox="0 0 512 512">
    <g>
      <g>
        <path d="M512,97.248c-19.04,8.352-39.328,13.888-60.48,16.576c21.76-12.992,38.368-33.408,46.176-58.016
          c-20.288,12.096-42.688,20.64-66.56,25.408C411.872,60.704,384.416,48,354.464,48c-58.112,0-104.896,47.168-104.896,104.992
          c0,8.32,0.704,16.32,2.432,23.936c-87.264-4.256-164.48-46.08-216.352-109.792c-9.056,15.712-14.368,33.696-14.368,53.056
          c0,36.352,18.72,68.576,46.624,87.232c-16.864-0.32-33.408-5.216-47.424-12.928c0,0.32,0,0.736,0,1.152
          c0,51.008,36.384,93.376,84.096,103.136c-8.544,2.336-17.856,3.456-27.52,3.456c-6.72,0-13.504-0.384-19.872-1.792
          c13.6,41.568,52.192,72.128,98.08,73.12c-35.712,27.936-81.056,44.768-130.144,44.768c-8.608,0-16.864-0.384-25.12-1.44
          C46.496,446.88,101.6,464,161.024,464c193.152,0,298.752-160,298.752-298.688c0-4.64-0.16-9.12-0.384-13.568
          C480.224,136.96,497.728,118.496,512,97.248z"/>
      </g>
    </g>
  </symbol>
  <symbol id="pinterest" viewBox="0 0 579.148 579.148">
    <g>
      <g>
        <path d="M434.924,38.847C390.561,12.954,342.107,0.01,289.574,0.01c-52.54,0-100.992,12.944-145.356,38.837
      C99.854,64.741,64.725,99.87,38.837,144.228C12.944,188.597,0,237.049,0,289.584c0,58.568,15.955,111.732,47.883,159.486
      c31.922,47.768,73.771,83.08,125.558,105.949c-1.01-26.896,0.625-49.137,4.902-66.732l37.326-157.607
      c-6.285-12.314-9.425-27.645-9.425-45.999c0-21.365,5.404-39.217,16.212-53.538c10.802-14.333,24.003-21.5,39.59-21.5
      c12.564,0,22.246,4.143,29.034,12.448c6.787,8.292,10.184,18.727,10.184,31.292c0,7.797-1.451,17.289-4.334,28.47
      c-2.895,11.187-6.665,24.13-11.31,38.837c-4.651,14.701-7.98,26.451-9.994,35.252c-3.525,15.33-0.63,28.463,8.672,39.4
      c9.295,10.936,21.616,16.4,36.952,16.4c26.898,0,48.955-14.951,66.176-44.865c17.217-29.914,25.826-66.236,25.826-108.973
      c0-32.925-10.617-59.701-31.859-80.312c-21.242-20.606-50.846-30.918-88.795-30.918c-42.486,0-76.862,13.642-103.123,40.906
      c-26.267,27.277-39.401,59.896-39.401,97.84c0,22.625,6.414,41.609,19.229,56.941c4.272,5.029,5.655,10.428,4.149,16.205
      c-0.508,1.512-1.511,5.281-3.017,11.309c-1.505,6.029-2.515,9.934-3.017,11.689c-2.014,8.049-6.787,10.564-14.333,7.541
      c-19.357-8.043-34.064-21.99-44.113-41.85c-10.055-19.854-15.08-42.852-15.08-68.996c0-16.842,2.699-33.685,8.103-50.527
      c5.404-16.842,13.819-33.115,25.264-48.832c11.432-15.698,25.135-29.596,41.102-41.659c15.961-12.069,35.38-21.738,58.256-29.04
      c22.871-7.283,47.51-10.93,73.904-10.93c35.693,0,67.744,7.919,96.146,23.751c28.402,15.839,50.086,36.329,65.043,61.463
      c14.951,25.135,22.436,52.026,22.436,80.692c0,37.705-6.541,71.641-19.607,101.807c-13.072,30.166-31.549,53.855-55.43,71.072
      c-23.887,17.215-51.035,25.826-81.445,25.826c-15.336,0-29.664-3.58-42.986-10.748c-13.33-7.166-22.503-15.648-27.528-25.453
      c-11.31,44.486-18.097,71.018-20.361,79.555c-4.78,17.852-14.584,38.457-29.413,61.836c26.897,8.043,54.296,12.062,82.198,12.062
      c52.534,0,100.987-12.943,145.35-38.83c44.363-25.895,79.492-61.023,105.387-105.393c25.887-44.365,38.838-92.811,38.838-145.352
      c0-52.54-12.951-100.985-38.838-145.355C514.422,99.87,479.287,64.741,434.924,38.847z"/>
      </g>
    </g>
  </symbol>
  <symbol id="rss" viewBox="0 0 448 448">
    <g>
      <g>
        <circle cx="64" cy="384" r="64"/>
      </g>
    </g>
    <g>
      <g>
        <path d="M0,149.344v85.344c117.632,0,213.344,95.68,213.344,213.312h85.312C298.656,283.328,164.672,149.344,0,149.344z"/>
      </g>
    </g>
    <g>
      <g>
        <path d="M0,0v85.344C200,85.344,362.688,248,362.688,448H448C448,200.96,247.04,0,0,0z"/>
      </g>
    </g>
  </symbol>
</svg>
